<?xml version="1.0" standalone="no"?>
<!DOCTYPE svg PUBLIC "-//W3C//DTD SVG 20010904//EN"
 "http://www.w3.org/TR/2001/REC-SVG-20010904/DTD/svg10.dtd">
<svg version="1.0" xmlns="http://www.w3.org/2000/svg"
 width="512.000000pt" height="512.000000pt" viewBox="0 0 512.000000 512.000000"
 preserveAspectRatio="xMidYMid meet">
<metadata>
Created by potrace 1.11, written by Peter Selinger 2001-2013
</metadata>
<g transform="translate(0.000000,512.000000) scale(0.100000,-0.100000)"
fill="#000000" stroke="none">
<path d="M2368 5115 c-1 -1 -37 -6 -77 -9 -41 -4 -78 -9 -81 -11 -3 -2 -28 -6
-56 -9 -27 -2 -71 -10 -99 -16 -27 -7 -61 -14 -75 -17 -14 -3 -29 -6 -35 -7
-85 -20 -287 -86 -299 -97 -6 -5 -16 -9 -24 -9 -7 0 -56 -20 -109 -45 -52 -25
-97 -45 -99 -45 -3 0 -57 -30 -120 -66 -371 -213 -676 -507 -904 -868 -207
-329 -335 -700 -378 -1096 -9 -86 -8 -461 1 -525 4 -27 10 -68 12 -90 2 -22 7
-53 10 -70 40 -197 40 -196 65 -280 11 -38 22 -77 24 -85 15 -57 80 -215 142
-345 58 -122 192 -335 281 -445 91 -113 166 -194 274 -295 340 -317 765 -538
1209 -628 214 -44 289 -51 525 -52 164 0 238 4 365 20 23 2 147 26 210 40 14
3 38 8 53 10 55 10 299 95 395 137 169 74 407 212 516 300 16 13 63 51 105 84
473 381 815 998 898 1619 2 22 7 51 9 65 9 50 11 457 3 525 -13 116 -19 159
-24 185 -14 64 -25 117 -29 140 -35 178 -137 445 -244 645 -50 91 -154 256
-199 313 -281 359 -554 584 -943 778 -102 51 -296 126 -395 154 -5 1 -14 4
-20 6 -57 17 -241 55 -335 69 -19 3 -53 7 -75 11 -42 6 -471 14 -477 9z m467
-159 c17 -3 48 -7 71 -10 220 -27 509 -119 744 -237 102 -51 291 -167 345
-212 11 -8 47 -37 80 -63 66 -53 172 -152 244 -228 25 -27 53 -57 61 -65 8 -9
45 -54 81 -101 226 -290 390 -643 459 -990 41 -209 44 -243 45 -480 0 -228 -6
-296 -41 -485 -29 -162 -110 -398 -194 -570 -266 -546 -681 -938 -1260 -1188
-114 -49 -393 -130 -495 -142 -22 -3 -51 -7 -65 -10 -145 -28 -545 -28 -700 0
-14 3 -41 7 -60 10 -69 11 -226 47 -290 68 -36 12 -67 22 -70 22 -3 1 -12 4
-20 8 -8 3 -40 14 -70 25 -63 23 -253 110 -290 133 -14 9 -59 35 -100 59 -210
121 -458 339 -630 554 -284 353 -458 771 -517 1241 -16 120 -6 594 13 626 1 3
6 28 9 55 10 75 69 297 109 408 50 138 156 352 234 471 59 90 139 202 167 231
5 6 29 33 51 60 190 224 466 435 749 574 126 62 309 135 355 142 3 0 28 8 55
18 28 9 66 20 85 24 19 3 46 9 60 12 14 3 36 7 50 10 14 2 46 9 71 14 26 5 82
12 125 16 44 4 81 8 83 10 6 5 422 -3 456 -10z"/>
<path d="M2358 4785 c-2 -1 -28 -5 -58 -9 -188 -20 -345 -61 -580 -148 -147
-54 -393 -199 -547 -320 -103 -81 -284 -263 -361 -363 -34 -44 -66 -84 -70
-90 -43 -54 -150 -236 -193 -325 -79 -168 -164 -432 -188 -590 -6 -36 -13 -81
-17 -100 -13 -79 -13 -455 2 -560 37 -272 110 -506 229 -736 53 -104 152 -265
192 -314 6 -8 33 -42 60 -75 320 -401 832 -706 1329 -790 165 -28 235 -33 434
-30 284 3 457 32 693 114 337 117 607 288 862 545 357 360 559 777 632 1306
10 70 10 436 1 515 -82 660 -434 1234 -981 1602 -258 173 -617 312 -897 349
-19 2 -64 8 -100 13 -57 8 -434 13 -442 6z"/>
</g>
</svg>
